<svg fill="none" height="32" viewBox="0 0 215 32" width="215" xmlns="http://www.w3.org/2000/svg"><g fill="#bf0000"><path d="m-.00000237 20.944v-20.94400004h5.75824237c4.04633 0 7.00326 2.80292004 7.00326 6.69586004 0 2.80292-1.245 4.74944-3.8129 5.83944l5.1357 8.4087h-3.0347l-4.27979-7.5523h-4.35757v7.5523zm2.41224237-9.8102h3.346c2.56786 0 4.43536-1.94645 4.43536-4.43794 0-2.56934-1.8675-4.43795-4.43536-4.43795h-3.346z" transform="translate(114.153 2.56934)"/><path d="m14.5512 14.1703c-1.4006 2.2579-3.8129 3.5037-6.76981 3.5037-4.59102 0-7.78139237-3.6594-7.78139237-8.87595 0-5.13868 3.03474237-8.7980497 7.39233237-8.7980497 4.04637 0 7.23667 3.5815097 7.23667 8.0973197 0 .46716 0 .77859-.0778 1.32361h-12.06116c.15563 1.94647.62252 3.27007 1.71192 4.36007.93377 1.0122 2.17879 1.6351 3.50163 1.6351 2.10098 0 3.89071-1.0122 4.74661-2.803zm-2.5678-6.85157c-.2335-3.11435-2.02321-5.13868-4.51326-5.13868-1.63409 0-3.11255.85645-4.04632 2.33577-.46688.85644-.70033 1.55717-.85596 2.80291z" transform="translate(127.771 6.30652)"/><path d="m2.41224 7.63017c1.24502-1.63504 2.8013-2.41362 4.82446-2.41362 4.3576 0 7.3923 3.5815 7.3923 8.79805 0 5.2165-3.0347 8.7981-7.3923 8.7981-1.94535 0-3.42382-.7008-4.74666-2.258l-.38907 1.8687h-2.10097v-22.4234h2.41224zm-.15564 6.30653c0 3.8151 2.02317 6.618 4.90228 6.618 2.80131 0 4.90232-2.8029 4.90232-6.5401 0-3.8151-2.10101-6.61801-4.90232-6.61801-2.8013 0-4.90228 2.80291-4.90228 6.54011z" transform="translate(144.345 1.16785)"/><path d="m12.139 15.3382c-1.3229 1.5572-2.80132 2.2579-4.74667 2.2579-4.35758 0-7.39232525-3.5815-7.39232525-8.79805 0-5.21654 3.03473525-8.79805015 7.47013525-8.79805015 2.02316 0 3.34596.62287115 4.74666 1.94647015l.3112-1.557176h2.101v16.817506h-2.101zm-9.57114-6.61801c0 3.81511 2.10098 6.61801 4.90228 6.61801 2.80126 0 4.90226-2.7251 4.90226-6.54015 0-3.81508-2.0231-6.618-4.90226-6.618-2.87912 0-4.90228 2.80292-4.90228 6.54014z" transform="translate(160.374 6.3844)"/><path d="m5.29135.00000007v3.65936993h4.20195v2.25791h-4.20195v11.13382c0 1.0122.62251 1.635 1.7119 1.635.93377 0 1.47847-.3114 2.02317-1.2457l1.78968 1.2457c-1.16716 1.7129-2.25657 2.2579-4.04629 2.2579-1.86753 0-3.03474-.7007-3.57943-2.2579-.23345-.545-.31127-1.1678-.31127-2.1022v-10.66662h-2.87911237v-2.18005h2.87911237v-3.73722993z" transform="translate(176.793 3.0365)"/><path d="m14.5512 14.1703c-1.4006 2.2579-3.8129 3.5037-6.7698 3.5037-4.59102 0-7.78139763-3.6594-7.78139763-8.87595 0-5.13868 3.03474763-8.7980497 7.39232763-8.7980497 4.04637 0 7.23667 3.5815097 7.23667 8.0973197 0 .46716 0 .77859-.0778 1.32361h-12.06115c.15563 1.94647.62251 3.27007 1.7119 4.36007.93377 1.0122 2.17879 1.6351 3.50163 1.6351 2.10098 0 3.89072-1.0122 4.74662-2.803zm-2.5678-6.85157c-.2335-3.11435-2.02322-5.13868-4.51326-5.13868-1.6341 0-3.11256.85645-4.04633 2.33577-.46688.85644-.70032 1.55717-.85594 2.80291z" transform="translate(187.765 6.30652)"/><path d="m9.25987 3.9708c-.85595-1.01216-2.10099-1.63503-3.34601-1.63503-1.6341 0-2.80131.9343-2.80131 2.33576 0 .85645.31126 1.47932.93378 1.94648.31125.23357.31125.23357 3.11256 1.40145 3.26821 1.40146 4.51321 2.88074 4.51321 5.06084 0 2.8029-2.25661 4.5937-5.75824 4.5937-2.56786 0-4.51322-.9343-5.9138695-2.7251l1.7119195-1.5572c1.32283 1.4015 2.56786 2.0244 4.27977 2.0244 1.94534 0 3.19037-.8565 3.19037-2.3358 0-.7786-.4669-1.635-1.40066-2.3358-.62251-.4671-1.32284-.85642-3.50163-1.71287-2.64568-1.09002-3.735062-2.41363-3.735062-4.59367 0-2.72506 2.100972-4.43796 5.291342-4.43796 2.10098 0 3.65726.622871 5.13576 2.10219z" transform="translate(203.328 6.22864)"/><path d="m65.1303 0h-65.1302997l5.2135397 5.13869z" transform="translate(21.4766 26.8613)"/><path d="m11.8277.467153v.778587c-1.245-.778587-2.25658-1.24573993-3.81286-1.24573993-4.59103 0-8.01483941 4.12651993-8.01483941 9.26520993s3.50162941 9.26519 8.01483941 9.26519c1.47846 0 2.56786-.4671 3.81286-1.2457v.7786h3.9685v-17.596147zm-3.81286 13.858847c-2.25661 0-3.8907-2.18-3.8907-4.98293 0-2.80292 1.63409-4.98297 3.8907-4.98297 2.25656 0 3.81286 2.18005 3.81286 4.98297.0778 2.80293-1.5563 4.98293-3.81286 4.98293z" transform="translate(15.7183 5.37231)"/><path d="m10.5827 0v10.3552c0 1.9465-1.32284 3.5815-3.26819 3.5815-1.94534 0-3.26819-1.635-3.26819-3.5815v-10.3552h-4.04632v10.3552c0 4.2823 2.87911 7.7081 7.15888 7.7081 1.94535 0 3.42382-1.0901 3.42382-1.0901v.6229h4.0463v-17.5961z" transform="translate(49.0227 5.83948)"/><path d="m4.04633 18.0633v-10.35527c0-1.94647 1.32284-3.58151 3.26819-3.58151s3.26818 1.63504 3.26818 3.58151v10.35527h4.0463v-10.35527c0-4.28224-2.8791-7.70803-7.15886-7.70803-1.94535 0-3.42381 1.09002-3.42381 1.09002v-.700726h-4.04632881v17.674006z" transform="translate(92.9099 5.45007)"/><path d="m4.20195 22.1119v-6.8516h2.95694l5.13571 6.8516h5.2135l-6.2251-8.253c1.9454-1.4015 3.1904-3.6594 3.1904-6.22873 0-4.20438-3.4238-7.63017004-7.62577-7.63017004h-6.84763v22.03410004h4.20195zm0-17.82966h2.72349c1.86754 0 3.42386 1.55718 3.42386 3.42579s-1.55632 3.42577-3.42386 3.42577h-2.72349z" transform="translate(0 1.40149)"/><path d="m9.33768 17.9854c-.38908.2336-.77814.4672-1.32284.4672-.62251 0-1.86754-.4672-1.86754-2.1801v-7.55231h3.42382v-4.28223h-3.42382v-4.43796004h-4.04632v4.43796004h-2.10098237v4.20437h2.10098237v7.63017c0 3.9708 2.95693 6.3066 5.99167 6.3066 1.0894 0 2.64565-.3893 3.89075-1.0901z" transform="translate(65.1304 1.40149)"/><path d="m7.62577 14.1703 6.92543-8.33088h-5.60259l-4.82447 6.15088v-11.9903h-4.12414v23.5134h4.12414v-7.2409l5.91386 7.2409h5.6026z" transform="translate(33.8489)"/><path d="m7.93702 0c-4.66883 0-7.93701881 4.04866-7.93701881 9.26521 0 5.45009 4.20194881 9.26519 8.32608881 9.26519 2.10101 0 4.82451-.7007 7.08111-3.9708l-3.5017-2.0243c-2.72345 4.0486-7.31448 2.0243-7.85917-2.0244h11.51647c1.0116-6.38438-3.1126-10.5109-7.62578-10.5109zm3.50168 6.92944h-7.23674c.85595-4.12652 6.45854-4.3601 7.23674 0z" transform="translate(75.7908 5.45007)"/></g></svg>